/* XPM */
static char *mmoore_xpm[] = {
"16 16 8 1 0 0",
"  c #000000",
"! c #5C3C1E",
"# c #6F4924",
"$ c #9A6633",
"% c #CA945E",
"& c #FEFFFF",
"' c #FFFFFF",
"( c None",
"((((((((((((((((",
"((((((!!!!((((((",
"(((((!####!(((((",
"((((!######!((((",
"(((!%%%%%%%%!(((",
"(!!%% %%%% %%!!(",
"!%!% '$%%$' %!%!",
"!%!%%%%  %%%%!%!",
"!%!##########!%!",
"(!%!''''''''!%!(",
"((!#''''''''#!((",
"((!##''''''##!((",
"(((!##''&'##!(((",
"(((!########!(((",
"((((!!####!!((((",
"((((((!!!!(((((("
};
